<?xml version="1.0" encoding="utf-8"?>
<!-- Generator: Adobe Illustrator 19.1.0, SVG Export Plug-In . SVG Version: 6.00 Build 0)  -->
<svg version="1.1" id="Layer_1" xmlns="http://www.w3.org/2000/svg" xmlns:xlink="http://www.w3.org/1999/xlink" x="0px" y="0px"
	 viewBox="0 0 250 250" enable-background="new 0 0 250 250" xml:space="preserve">
<g>
	<g>
		<path d="M124.5,146.7c-0.6,0.8-1.1,1.7-1.8,2.4c-31.8,31.9-63.6,63.7-95.4,95.5c-6.5,6.5-16.7,6.6-22.8,0.2
			c-5.6-5.9-5.6-15.6,0.2-21.5c7.8-7.9,15.8-15.8,23.7-23.7c21.7-21.7,43.4-43.4,65-65c3.1-3.1,6.2-6.3,9.6-9.7
			c-2-2-4.1-4.1-6.2-6.2c-17.5-17.5-35-34.9-52.6-52.4C31.2,53.2,18.2,40.1,5.1,27c-4.5-4.5-5.6-10-3.9-15.9
			C2.8,5.5,6.8,1.9,12.6,0.8c5.8-1.1,10.8,0.5,15,4.7c31.7,31.8,63.4,63.6,95.2,95.4c0.7,0.7,1.1,1.7,2,3c3-3.1,5.2-5.7,7.6-8.1
			c30.1-30.2,60.3-60.4,90.4-90.6c6.4-6.4,16.2-6.5,22.4-0.3c6,6,5.9,15.9-0.4,22.2c-31.9,31.9-63.8,63.7-95.7,95.5
			c-0.7,0.7-1.7,1.1-2.5,1.6c0,0.4,0,0.9,0.1,1.3c0.8,0.5,1.8,0.9,2.5,1.6c31.9,31.8,63.7,63.6,95.5,95.4c6.5,6.5,6.6,16.4,0.4,22.6
			c-5.9,5.8-15.7,5.8-21.7,0c-4.5-4.4-9-8.9-13.4-13.4c-25.2-25.2-50.3-50.3-75.5-75.5C131.3,153.3,128.2,150.3,124.5,146.7z"/>
	</g>
</g>
</svg>
