<?xml version="1.0" encoding="utf-8"?>
<!-- Generator: Adobe Illustrator 19.1.0, SVG Export Plug-In . SVG Version: 6.00 Build 0)  -->
<svg version="1.1" id="Layer_1" xmlns="http://www.w3.org/2000/svg" xmlns:xlink="http://www.w3.org/1999/xlink" x="0px" y="0px"
	 viewBox="0 0 332 73" enable-background="new 0 0 332 73" xml:space="preserve">
<g>
	<path d="M0.4,72.6V5.5V0.4h22c0.1,0,0.6,0,1.3,0.1c0.7,0.1,1.6,0.2,2.7,0.4c1.1,0.2,2.3,0.5,3.6,0.9c1.3,0.4,2.7,0.9,4.1,1.5
		c3.8,2,6.8,4.8,8.9,8.4c2.2,3.6,3.2,7.7,3.2,12.4c0,0.1,0,0.6-0.1,1.3c0,0.7-0.2,1.6-0.4,2.7c-0.2,1.1-0.5,2.3-0.9,3.6
		c-0.4,1.3-0.9,2.7-1.6,4.1v-0.1c-2,3.9-4.8,6.9-8.4,9c-3.6,2.1-7.8,3.1-12.5,3.1H10.6v19.7c0,1.4-0.5,2.6-1.5,3.6
		c-1,1-2.2,1.5-3.7,1.5H0.4z M10.6,37.5h11.8c5.4,0,9.3-2,11.6-6.1c0.4-0.8,0.7-1.7,1-2.5c0.2-0.9,0.4-1.6,0.6-2.3
		c0.1-0.7,0.2-1.3,0.3-1.7c0-0.4,0.1-0.7,0.1-0.8c0-5.6-2.2-9.6-6.5-11.8c-0.9-0.4-1.7-0.7-2.5-0.9c-0.8-0.2-1.5-0.4-2.2-0.5
		c-0.8-0.1-1.5-0.2-2.3-0.2H10.6V37.5z"/>
	<path d="M65.6,0.4c1.4,0,2.6,0.5,3.6,1.5c1,1,1.5,2.2,1.5,3.6v62.1c0,1.4-0.5,2.6-1.5,3.6c-1,1-2.2,1.5-3.6,1.5
		c-1.4,0-2.6-0.5-3.6-1.5c-1-1-1.5-2.2-1.5-3.6V0.4H65.6z"/>
	<path d="M90.8,0.4c1.7,0,3.1,0.8,4.2,2.3l33.9,48.5V5.5c0-1.4,0.5-2.6,1.5-3.6c1-1,2.2-1.5,3.6-1.5s2.6,0.5,3.6,1.5
		c1,1,1.5,2.2,1.5,3.6v67.1h-5.2c-1.7,0-3.1-0.8-4.2-2.3L95.9,21.8v45.8c0,1.4-0.5,2.6-1.5,3.6c-1,1-2.3,1.5-3.7,1.5
		c-1.4,0-2.6-0.5-3.6-1.5c-1-1-1.5-2.2-1.5-3.6V0.4H90.8z"/>
	<path d="M200.6,67.5c0,1.4-0.5,2.6-1.5,3.6c-1,1-2.3,1.5-3.7,1.5h-37.1c-1.4,0-2.6-0.5-3.6-1.5c-1-1-1.5-2.2-1.5-3.6
		c0-0.5,0-0.9,0.1-1.3c0.1-0.4,0.3-0.8,0.6-1.1l32.6-54.2h-28.1c-1.4,0-2.6-0.5-3.6-1.5c-1-1-1.5-2.2-1.5-3.6V0.4h42.3
		c1.4,0,2.6,0.5,3.6,1.5c1,1,1.5,2.2,1.5,3.6c0,1-0.3,1.9-0.8,2.7l-32.5,54.1h33.4V67.5z"/>
	<path d="M259.1,67.5c0,1.4-0.5,2.6-1.5,3.6c-1,1-2.2,1.5-3.6,1.5h-34c-1.4,0-2.7-0.5-3.7-1.5c-1-1-1.5-2.2-1.5-3.6V0.4h44.3v5.1
		c0,1.4-0.5,2.7-1.5,3.7c-1,1-2.2,1.5-3.6,1.5h-28.9v20.7h22.7c1.4,0,2.6,0.5,3.6,1.5c1,1,1.5,2.2,1.5,3.6s-0.5,2.6-1.5,3.6
		c-1,1-2.2,1.5-3.6,1.5h-22.7v17.6c0,0,0.1,3.1,3.1,3.1h30.9V67.5z"/>
	<path d="M331.6,0.4L305.2,38v29.5c0,1.4-0.5,2.6-1.5,3.6c-1,1-2.3,1.5-3.7,1.5h-5.1V38L268.4,0.4h7.6c6.1,0,8,4.3,9.1,5.8
		l14.9,21.3l15.2-21.6c1.1-1.5,3.4-5.5,9.1-5.5H331.6z"/>
</g>
</svg>
